<svg xmlns="http://www.w3.org/2000/svg" viewBox="0 0 458.65 458.76"><defs><style>.cls-1{fill:#dbdbdb;}</style></defs><g id="Layer_2" data-name="Layer 2"><g id="Capa_1" data-name="Capa 1"><path class="cls-1" d="M448.14,10.58c-11.9-11.9-30.2-13.8-54.3-5.5-10.6,3.6-22.6,9.2-36.1,16.8-8.1,4.6-16.8,9.8-25.8,15.8-2.4,1.6-4.8,3.2-7.3,4.9a201.6,201.6,0,0,1,38.6,25.5c2.8-1.7,5.4-3.4,8-4.9,22.8-13.6,37.1-18.8,44.6-20.3-2,10.1-10.7,32.8-37.9,72-2.2,3.1-4.4,6.3-6.7,9.5a167.3,167.3,0,0,0-17.1-19.8c-68.9-68.9-180.7-68.9-249.6,0s-68.9,180.7,0,249.6a175.68,175.68,0,0,0,19.8,17.1c-3.2,2.3-6.4,4.5-9.5,6.7-39.2,27.1-61.9,35.9-72,37.9,1.2-6.1,4.9-17,13.8-33.4,3.1-5.7,6.8-12.1,11.3-19.2a211.48,211.48,0,0,1-25.5-38.6c-1.7,2.4-3.3,4.9-4.9,7.3a381.06,381.06,0,0,0-20.7,35A201.53,201.53,0,0,0,5,393.88c-8.2,24.1-6.4,42.4,5.5,54.3s30.2,13.8,54.3,5.5c17-5.8,37.8-16.8,61.9-32.6,47.6-31.3,104.4-79,159.8-134.4s103.2-112.2,134.4-159.8c15.8-24.1,26.8-44.9,32.6-61.9C461.84,40.78,460,22.58,448.14,10.58Zm-344.3,235.6A16.77,16.77,0,0,1,87,229.38a142.29,142.29,0,0,1,41.9-101.2,16.83,16.83,0,1,1,23.8,23.8,108.78,108.78,0,0,0-32.1,77.4A16.71,16.71,0,0,1,103.84,246.18Z"/><path class="cls-1" d="M310.14,310.18a1316.4,1316.4,0,0,1-104.3,94.1,176.44,176.44,0,0,0,198.4-198.4A1316.4,1316.4,0,0,1,310.14,310.18Z"/></g></g></svg>