<svg xmlns="http://www.w3.org/2000/svg" viewBox="0 0 1369.63 1080.72"><defs><style>.cls-1{fill:#3e71b8;}.cls-11,.cls-2,.cls-3,.cls-4,.cls-5,.cls-6,.cls-7,.cls-8{fill:none;stroke:#3e71b8;stroke-miterlimit:10;}.cls-2,.cls-3,.cls-5,.cls-6,.cls-7,.cls-8{stroke-width:1.5px;}.cls-3{stroke-dasharray:16.58 16.58;}.cls-11,.cls-4{stroke-width:2px;}.cls-4{opacity:0.5;}.cls-5{stroke-dasharray:14.48 14.48;}.cls-6{stroke-dasharray:14.31 14.31;}.cls-7{stroke-dasharray:16.58 16.58;}.cls-8{stroke-dasharray:8.55 8.55;}.cls-10,.cls-9{opacity:0.91;font-size:23px;font-family:PirulenRg-Regular, Pirulen;}.cls-9{fill:#ee204c;}.cls-10{fill:#3f71b8;}</style></defs><g id="Layer_2" data-name="Layer 2"><g id="Layer_1-2" data-name="Layer 1"><polygon class="cls-1" points="683.63 202.46 684.12 268.38 684.4 334.3 684.63 466.13 684.4 597.97 684.12 663.88 683.63 729.8 683.14 663.88 682.86 597.97 682.63 466.13 682.87 334.3 683.14 268.38 683.63 202.46"/><line class="cls-2" x1="634.67" y1="709.77" x2="642.17" y2="709.77"/><line class="cls-3" x1="658.76" y1="709.77" x2="716.8" y2="709.77"/><line class="cls-2" x1="725.09" y1="709.77" x2="732.59" y2="709.77"/><polyline class="cls-4" points="217.29 1080 222.97 1074.52 433.59 871.34 500.02 807.26 536.59 771.98 830.67 771.98 867.24 807.26 933.67 871.34 1144.29 1074.52 1149.97 1080"/><line class="cls-4" x1="500.02" y1="807.26" x2="867.24" y2="807.26"/><line class="cls-4" x1="433.59" y1="871.34" x2="933.67" y2="871.34"/><line class="cls-4" x1="345.62" y1="957.02" x2="1021.64" y2="957.02"/><line class="cls-4" x1="1144.29" y1="1074.52" x2="222.97" y2="1074.52"/><line class="cls-2" x1="610.99" y1="222.66" x2="618.49" y2="222.66"/><line class="cls-5" x1="632.97" y1="222.66" x2="741.53" y2="222.66"/><line class="cls-2" x1="748.77" y1="222.66" x2="756.27" y2="222.66"/><line class="cls-2" x1="654.67" y1="656.52" x2="662.17" y2="656.52"/><line class="cls-6" x1="676.48" y1="656.52" x2="697.94" y2="656.52"/><line class="cls-2" x1="705.09" y1="656.52" x2="712.59" y2="656.52"/><line class="cls-2" x1="634.67" y1="286.1" x2="642.17" y2="286.1"/><line class="cls-7" x1="658.76" y1="286.1" x2="716.8" y2="286.1"/><line class="cls-2" x1="725.09" y1="286.1" x2="732.59" y2="286.1"/><line class="cls-2" x1="667.63" y1="603.27" x2="675.13" y2="603.27"/><line class="cls-2" x1="692.13" y1="603.27" x2="699.63" y2="603.27"/><line class="cls-2" x1="654.67" y1="349.53" x2="662.17" y2="349.53"/><line class="cls-6" x1="676.48" y1="349.53" x2="697.94" y2="349.53"/><line class="cls-2" x1="705.09" y1="349.53" x2="712.59" y2="349.53"/><path class="cls-1" d="M610.39,539.84q18.32-.58,36.62-.78c12.21-.16,24.42-.2,36.62-.22s24.41.06,36.62.22,24.41.39,36.62.78q-18.32.58-36.62.78c-12.21.16-24.41.2-36.62.22s-24.41-.07-36.62-.23S622.6,540.22,610.39,539.84Z"/><line class="cls-2" x1="670.03" y1="476.4" x2="677.53" y2="476.4"/><line class="cls-2" x1="689.73" y1="476.4" x2="697.23" y2="476.4"/><line class="cls-2" x1="663.31" y1="412.97" x2="670.81" y2="412.97"/><line class="cls-8" x1="679.36" y1="412.97" x2="692.18" y2="412.97"/><line class="cls-2" x1="696.45" y1="412.97" x2="703.95" y2="412.97"/><text class="cls-9" transform="translate(759.41 718.73)">-30</text><text class="cls-10" transform="translate(738.44 665.75)">-20</text><text class="cls-10" transform="translate(725.36 612.13)">-10</text><text class="cls-10" transform="translate(723.95 483.13)">5</text><text class="cls-10" transform="translate(728.92 419.23)">10</text><text class="cls-10" transform="translate(738.44 356.28)">20</text><text class="cls-10" transform="translate(759.41 294.66)">30</text><text class="cls-9" transform="translate(784.88 231.26)">45</text><text class="cls-9" transform="translate(784.88 547.55)">0</text><text class="cls-9" transform="translate(558.82 720.14)">-30</text><text class="cls-10" transform="translate(578.4 667.16)">-20</text><text class="cls-10" transform="translate(601.19 613.54)">-10</text><text class="cls-10" transform="translate(622.86 484.54)">5</text><text class="cls-10" transform="translate(604.49 420.64)">10</text><text class="cls-10" transform="translate(587.99 357.69)">20</text><text class="cls-10" transform="translate(566.73 296.07)">30</text><text class="cls-9" transform="translate(543.08 232.76)">45</text><text class="cls-9" transform="translate(560.26 548.96)">0</text><line class="cls-11" x1="683.63" y1="182.6" x2="683.63"/><path class="cls-1" d="M832.16,530a.65.65,0,0,1,.46.18.62.62,0,0,1,.18.44v19.23a.62.62,0,0,1-.18.44.65.65,0,0,1-.46.18h-5.22a.64.64,0,0,1-.44-.17.58.58,0,0,1-.18-.43.54.54,0,0,1,.18-.42.6.6,0,0,1,.44-.18h4.69l-.19.17V531l.17.3h-4.67a.58.58,0,0,1-.44-.19.64.64,0,0,1-.18-.45.58.58,0,0,1,.18-.43.64.64,0,0,1,.44-.17Z"/><path class="cls-1" d="M537.45,550.49a.61.61,0,0,1-.62-.62V530.64a.61.61,0,0,1,.62-.62h5.25a.63.63,0,0,1,.43.17.56.56,0,0,1,.19.43.52.52,0,0,1-.19.42.6.6,0,0,1-.43.18H538l.21-.17v18.5l-.19-.3h4.7a.57.57,0,0,1,.43.19.61.61,0,0,1,.19.45.58.58,0,0,1-.19.42.6.6,0,0,1-.43.18Z"/><polygon class="cls-1" points="1369.63 541 1355.63 540.97 1355.63 539.03 1369.63 539 1369.63 541"/><polygon class="cls-1" points="1328.85 540.92 1302.07 540.87 1302.07 539.13 1328.85 539.08 1328.85 540.92"/><polygon class="cls-1" points="1275.29 540.82 1248.51 540.77 1248.51 539.23 1275.29 539.18 1275.29 540.82"/><polygon class="cls-1" points="1221.73 540.72 1194.95 540.67 1194.95 539.33 1221.73 539.28 1221.73 540.72"/><polygon class="cls-1" points="1168.17 540.63 1141.39 540.58 1141.39 539.42 1168.17 539.38 1168.17 540.63"/><polygon class="cls-1" points="1114.61 540.52 1087.83 540.48 1087.83 539.52 1114.61 539.48 1114.61 540.52"/><polygon class="cls-1" points="1061.04 540.42 1034.26 540.38 1034.26 539.63 1061.04 539.58 1061.04 540.42"/><polygon class="cls-1" points="1007.48 540.33 980.7 540.28 980.7 539.72 1007.48 539.67 1007.48 540.33"/><polygon class="cls-1" points="953.92 540.23 927.14 540.18 927.14 539.82 953.92 539.77 953.92 540.23"/><polygon class="cls-1" points="900.36 540.13 873.58 540.08 873.58 539.92 900.36 539.87 900.36 540.13"/><polygon class="cls-1" points="846.8 540.03 832.8 540 846.8 539.97 846.8 540.03"/><polygon class="cls-1" points="0 539 14 539.03 14 540.97 0 541 0 539"/><polygon class="cls-1" points="40.78 539.08 67.56 539.13 67.56 540.87 40.78 540.92 40.78 539.08"/><polygon class="cls-1" points="94.34 539.18 121.12 539.23 121.12 540.77 94.34 540.82 94.34 539.18"/><polygon class="cls-1" points="147.9 539.28 174.68 539.33 174.68 540.67 147.9 540.72 147.9 539.28"/><polygon class="cls-1" points="201.46 539.38 228.24 539.42 228.24 540.58 201.46 540.63 201.46 539.38"/><polygon class="cls-1" points="255.02 539.48 281.81 539.52 281.81 540.48 255.02 540.52 255.02 539.48"/><polygon class="cls-1" points="308.58 539.58 335.37 539.63 335.37 540.38 308.58 540.42 308.58 539.58"/><polygon class="cls-1" points="362.15 539.67 388.93 539.72 388.93 540.28 362.15 540.33 362.15 539.67"/><polygon class="cls-1" points="415.71 539.77 442.49 539.82 442.49 540.18 415.71 540.23 415.71 539.77"/><polygon class="cls-1" points="469.27 539.87 496.05 539.92 496.05 540.08 469.27 540.13 469.27 539.87"/><polygon class="cls-1" points="522.83 539.97 536.83 540 522.83 540.03 522.83 539.97"/></g></g></svg>