<?xml version="1.0" encoding="utf-8"?>
<!-- Generator: Adobe Illustrator 25.0.0, SVG Export Plug-In . SVG Version: 6.00 Build 0)  -->
<svg version="1.1" id="Layer_1_1_" xmlns="http://www.w3.org/2000/svg" xmlns:xlink="http://www.w3.org/1999/xlink" x="0px" y="0px"
	 viewBox="0 0 16 16" style="enable-background:new 0 0 16 16;" xml:space="preserve">
<style type="text/css">
	.st0{fill:#FFFFFF;}
</style>
<polygon class="st0" points="10,16 10,0 3,5 0,5 0,11 3,11 "/>
<path class="st0" d="M11,13.9c2.8-0.5,5-2.9,5-5.9s-2.2-5.4-5-5.9v1c2.3,0.5,4,2.5,4,4.9s-1.7,4.4-4,4.9V13.9z"/>
<path class="st0" d="M11,9.7v1.1c1.2-0.4,2-1.5,2-2.8s-0.8-2.4-2-2.8v1.1c0.6,0.3,1,1,1,1.7S11.6,9.4,11,9.7z"/>
</svg>
